<svg xmlns="http://www.w3.org/2000/svg" width="512" height="512" viewBox="0 0 24 24" fill="none" stroke="#3b82f6" stroke-width="1.5" stroke-linecap="round" stroke-linejoin="round">
  <rect x="0" y="0" width="24" height="24" rx="5" fill="#111827" stroke="none" />
  <path d="m15 12-8.5 8.5c-.83.83-2.17.83-3 0 0 0 0 0 0 0a2.12 2.12 0 0 1 0-3L12 9" stroke="#60a5fa" />
  <path d="M17.64 15 22 10.64" />
  <path d="m20.91 11.7-1.25-1.25c-.6-.6-.93-1.4-.93-2.25V7c0-.55-.45-1-1-1h-3.38c-.85 0-1.65-.33-2.25-.93L10.85 3.85c-.76-.76-2.24-1.2-2.85-1.2h-6c-.55 0-1 .45-1 1v6c0 .61.44 2.09 1.2 2.85l1.25 1.25" />
</svg>